<?xml version="1.0" encoding="UTF-8" standalone="no"?>
<!-- Created with Inkscape (http://www.inkscape.org/) -->

<svg
   version="1.1"
   id="svg2"
   width="76.108177"
   height="78.235298"
   viewBox="0 0 76.108179 78.2353"
   xmlns="http://www.w3.org/2000/svg"
   xmlns:svg="http://www.w3.org/2000/svg">
  <defs
     id="defs6" />
  <g
     id="g8"
     transform="translate(-28.879432,-37.176688)">
    <path
       style="fill:#000000;stroke-width:0.16"
       d="m 66.870561,115.18232 c -0.702525,-0.25044 -1.445863,-0.90042 -1.836247,-1.60563 -0.232403,-0.41983 -0.275744,-1.35075 -0.345715,-7.42572 -0.08,-6.945724 -0.08,-6.945724 -2.105971,-7.554864 -10.147987,-3.05116 -16.221963,-12.258332 -14.27737,-21.642207 0.819003,-3.952201 4.773533,-6.075744 6.450832,-3.464032 0.13888,0.21625 0.173631,0.344874 0.07722,0.285832 -0.09641,-0.05904 -0.0064,0.226229 0.2,0.633936 0.346476,0.684381 0.375286,0.934835 0.375286,3.262592 0,2.830045 0.187619,4.512946 0.653989,5.866146 0.17407,0.505073 0.354177,1.098315 0.40024,1.318315 0.0873,0.416958 0.170913,0.552939 0.918777,1.494171 0.249152,0.313576 0.471594,0.699667 0.494312,0.857983 0.02272,0.158315 0.682866,0.775067 1.466994,1.370558 0.784128,0.595491 1.677688,1.279261 1.985688,1.51949 0.308,0.240227 0.614,0.419008 0.68,0.397288 0.066,-0.02172 0.12,0.03251 0.12,0.12051 0,0.088 0.1296,0.16 0.288,0.16 0.1584,0 0.3564,0.0573 0.44,0.127338 1.115187,0.934243 6.51056,1.381254 8.429061,0.698353 6.14375,-2.186901 8.885241,-7.029736 8.097286,-14.30383 -0.37403,-3.452912 1.932621,-5.773667 4.585656,-4.613691 0.59425,0.259824 1.24137,0.81183 0.9517,0.81183 -0.0701,0 0.0249,0.162213 0.21116,0.360472 0.50307,0.535483 1.11479,1.975101 1.37718,3.241021 1.89071,9.121928 -3.82608,18.427685 -12.926008,21.040865 -1.454032,0.41755 -1.454032,0.41755 -1.534032,7.527594 -0.08997,7.99608 -0.02637,7.58272 -1.345166,8.74357 -1.105876,0.97343 -2.487452,1.25174 -3.832872,0.77211 z m -13.301962,-3.21779 c -4.587456,-1.13507 -9.81912,-4.34168 -13.853134,-8.49092 C 20.352622,83.557731 27.919812,53.326568 54.608599,43.975069 c 3.135542,-1.098664 4.004419,-1.106651 5.210274,-0.0479 2.419305,2.124179 0.978588,4.776562 -3.411176,6.280029 -16.750444,5.736928 -24.736639,24.736469 -16.88469,40.16949 0.519366,1.020814 0.772443,1.659202 0.602576,1.52 -0.283216,-0.232088 -0.28343,-0.225494 -0.0065,0.2 0.15749,0.242 0.354314,0.44 0.437387,0.44 0.08307,0 0.106543,0.072 0.05215,0.16 -0.05439,0.088 -0.03464,0.16 0.04389,0.16 0.07853,0 0.142776,0.09808 0.142776,0.21797 0,0.2288 0.66407,1.38203 0.795825,1.38203 0.04202,0 0.02703,-0.09 -0.0333,-0.2 -0.246166,-0.44884 1.159848,1.206128 1.926453,2.267558 0.231171,0.32008 2.60949,2.69958 3.370766,3.37244 2.136303,1.888204 5.637039,4.028924 8.606532,5.262974 5.038705,2.09395 3.366259,8.10616 -1.892948,6.80487 z m 26.032077,-0.3353 c -1.548328,-0.76307 -2.222299,-2.70515 -1.489671,-4.29254 0.430866,-0.93356 0.791914,-1.20372 3.825495,-2.86245 23.42821,-12.810318 20.3394,-45.173376 -5.208727,-54.574542 -3.212792,-1.182239 -4.123192,-2.218079 -3.806364,-4.330829 0.316715,-2.112013 3.106171,-3.120792 5.549849,-2.007048 0.383538,0.174803 1.453341,0.617461 2.377341,0.983683 1.7778,0.704618 6.1002,2.875413 6.64,3.334739 0.176,0.149762 0.752,0.548419 1.28,0.885906 16.650961,10.642968 21.192541,32.656944 10.29364,49.895387 -4.72723,7.476914 -15.72863,14.807404 -19.461563,12.967694 z M 65.625593,84.006094 c -5.780256,-1.970238 -4.7741,-9.822227 1.338216,-10.443353 4.692494,-0.476847 7.931038,5.200694 4.918646,8.622953 -1.688341,1.918056 -3.99849,2.590181 -6.256862,1.8204 z M 40.437826,81.936688 c -2.223806,-1.507787 -2.120897,-8.039262 0.144755,-9.187355 1.376204,-0.697375 3.412512,-0.386443 4.169855,0.636712 0.402725,0.544073 0.607102,5.722408 0.270227,6.846795 -0.595426,1.987355 -2.902293,2.844648 -4.584837,1.703848 z m 50.570773,0.294138 c -1.8679,-0.830194 -2.57455,-7.165487 -0.98934,-8.869709 0.9893,-1.063581 3.85443,-1.347952 4.27626,-0.424429 0.0402,0.088 0.12708,0.142 0.19308,0.12 0.066,-0.022 0.10545,0.014 0.0877,0.08 -0.0178,0.066 0.14421,0.444 0.36,0.84 0.47235,0.866834 0.59084,5.118424 0.1754,6.293723 -0.6193,1.752043 -2.52415,2.662165 -4.10306,1.960415 z M 59.367082,69.274272 c -2.984105,-1.09597 -2.641928,-4.382701 0.619599,-5.951432 7.323404,-3.522416 19.35751,-0.279155 16.656849,4.489117 -0.913989,1.613734 -2.124561,1.901757 -4.775888,1.136289 -3.647608,-1.053105 -5.822883,-1.08052 -8.95531,-0.112862 -1.996882,0.61687 -2.792469,0.71536 -3.54525,0.438888 z M 47.067967,65.33573 c -2.215864,-1.170895 -2.110048,-4.038509 0.19311,-5.233332 2.969383,-1.540441 5.69416,2.339384 3.241807,4.616024 -1.041037,0.966445 -2.334338,1.198871 -3.434917,0.617308 z m 36.737282,-0.05839 c -1.3866,-0.851498 -1.779653,-2.746086 -0.82844,-3.993195 0.52881,-0.693298 1.80411,-1.430498 2.23698,-1.293109 0.22233,0.07056 0.2796,0.04284 0.19483,-0.09431 -0.09,-0.145557 0.0153,-0.165077 0.41996,-0.07787 0.75722,0.163187 1.41793,0.52612 1.5405,0.846204 0.0572,0.149399 0.2695,0.515682 0.47177,0.813962 1.51004,2.22687 -1.68998,5.238746 -4.0356,3.79832 z M 56.983421,60.067738 c -3.069016,-0.977682 -2.896878,-5.101138 0.248306,-5.948048 1.824069,-0.491172 4.093109,1.561289 3.682498,3.331003 -0.413914,1.783955 -2.398434,3.105205 -3.930804,2.617045 z m 17.788468,-0.189616 c -1.340372,-0.534791 -2.079213,-2.604927 -1.396495,-3.912792 1.454954,-2.787213 5.645496,-1.89021 5.6282,1.20474 -0.01171,2.094429 -2.222968,3.509512 -4.231705,2.708052 z m -9.44329,-3.876138 c -1.902726,-0.966397 -2.386371,-3.81417 -0.910187,-5.359317 2.094224,-2.192057 5.540853,-1.164521 6.100515,1.818733 0.490382,2.613965 -2.712722,4.798963 -5.190328,3.540584 z M 65.148394,42.158267 c -2.382211,-1.510753 -1.197624,-4.981579 1.700205,-4.981579 1.003128,0 1.399229,0.19876 2.099726,1.053626 1.968876,2.402752 -1.13908,5.615416 -3.799931,3.927953 z"
       id="path1892" />
  </g>
</svg>
